<mxfile host="app.diagrams.net" modified="2024-06-12T11:28:46.420Z" agent="Mozilla/5.0 (Windows NT 10.0; Win64; x64) AppleWebKit/537.36 (KHTML, like Gecko) Chrome/125.0.0.0 Safari/537.36" etag="5iaNL6y7SZWAlSOu4Amu" version="24.5.3" type="github" pages="2">
  <diagram name="Page-1" id="Mc42nQhAaW1lDPkCBJWw">
    <mxGraphModel dx="1877" dy="557" grid="1" gridSize="10" guides="1" tooltips="1" connect="1" arrows="1" fold="1" page="1" pageScale="1" pageWidth="827" pageHeight="1169" math="0" shadow="0">
      <root>
        <mxCell id="0" />
        <mxCell id="1" parent="0" />
        <mxCell id="TpQrMElq0maH1EQhu35D-1" value="User" style="swimlane;fontStyle=0;childLayout=stackLayout;horizontal=1;startSize=30;horizontalStack=0;resizeParent=1;resizeParentMax=0;resizeLast=0;collapsible=1;marginBottom=0;whiteSpace=wrap;html=1;" vertex="1" parent="1">
          <mxGeometry x="20" y="80" width="140" height="360" as="geometry" />
        </mxCell>
        <mxCell id="TpQrMElq0maH1EQhu35D-31" value="Id" style="text;strokeColor=none;fillColor=none;align=left;verticalAlign=middle;spacingLeft=4;spacingRight=4;overflow=hidden;points=[[0,0.5],[1,0.5]];portConstraint=eastwest;rotatable=0;whiteSpace=wrap;html=1;" vertex="1" parent="TpQrMElq0maH1EQhu35D-1">
          <mxGeometry y="30" width="140" height="30" as="geometry" />
        </mxCell>
        <mxCell id="TpQrMElq0maH1EQhu35D-2" value="Email" style="text;strokeColor=none;fillColor=none;align=left;verticalAlign=middle;spacingLeft=4;spacingRight=4;overflow=hidden;points=[[0,0.5],[1,0.5]];portConstraint=eastwest;rotatable=0;whiteSpace=wrap;html=1;" vertex="1" parent="TpQrMElq0maH1EQhu35D-1">
          <mxGeometry y="60" width="140" height="30" as="geometry" />
        </mxCell>
        <mxCell id="TpQrMElq0maH1EQhu35D-3" value="Nom" style="text;strokeColor=none;fillColor=none;align=left;verticalAlign=middle;spacingLeft=4;spacingRight=4;overflow=hidden;points=[[0,0.5],[1,0.5]];portConstraint=eastwest;rotatable=0;whiteSpace=wrap;html=1;" vertex="1" parent="TpQrMElq0maH1EQhu35D-1">
          <mxGeometry y="90" width="140" height="30" as="geometry" />
        </mxCell>
        <mxCell id="TpQrMElq0maH1EQhu35D-4" value="Prénom" style="text;strokeColor=none;fillColor=none;align=left;verticalAlign=middle;spacingLeft=4;spacingRight=4;overflow=hidden;points=[[0,0.5],[1,0.5]];portConstraint=eastwest;rotatable=0;whiteSpace=wrap;html=1;" vertex="1" parent="TpQrMElq0maH1EQhu35D-1">
          <mxGeometry y="120" width="140" height="30" as="geometry" />
        </mxCell>
        <mxCell id="TpQrMElq0maH1EQhu35D-5" value="Fonction" style="text;strokeColor=none;fillColor=none;align=left;verticalAlign=middle;spacingLeft=4;spacingRight=4;overflow=hidden;points=[[0,0.5],[1,0.5]];portConstraint=eastwest;rotatable=0;whiteSpace=wrap;html=1;" vertex="1" parent="TpQrMElq0maH1EQhu35D-1">
          <mxGeometry y="150" width="140" height="30" as="geometry" />
        </mxCell>
        <mxCell id="TpQrMElq0maH1EQhu35D-6" value="Statut" style="text;strokeColor=none;fillColor=none;align=left;verticalAlign=middle;spacingLeft=4;spacingRight=4;overflow=hidden;points=[[0,0.5],[1,0.5]];portConstraint=eastwest;rotatable=0;whiteSpace=wrap;html=1;" vertex="1" parent="TpQrMElq0maH1EQhu35D-1">
          <mxGeometry y="180" width="140" height="30" as="geometry" />
        </mxCell>
        <mxCell id="TpQrMElq0maH1EQhu35D-7" value="Rôle" style="text;strokeColor=none;fillColor=none;align=left;verticalAlign=middle;spacingLeft=4;spacingRight=4;overflow=hidden;points=[[0,0.5],[1,0.5]];portConstraint=eastwest;rotatable=0;whiteSpace=wrap;html=1;" vertex="1" parent="TpQrMElq0maH1EQhu35D-1">
          <mxGeometry y="210" width="140" height="30" as="geometry" />
        </mxCell>
        <mxCell id="TpQrMElq0maH1EQhu35D-48" value="A propos" style="text;strokeColor=none;fillColor=none;align=left;verticalAlign=middle;spacingLeft=4;spacingRight=4;overflow=hidden;points=[[0,0.5],[1,0.5]];portConstraint=eastwest;rotatable=0;whiteSpace=wrap;html=1;" vertex="1" parent="TpQrMElq0maH1EQhu35D-1">
          <mxGeometry y="240" width="140" height="30" as="geometry" />
        </mxCell>
        <mxCell id="TpQrMElq0maH1EQhu35D-49" value="Entité" style="text;strokeColor=none;fillColor=none;align=left;verticalAlign=middle;spacingLeft=4;spacingRight=4;overflow=hidden;points=[[0,0.5],[1,0.5]];portConstraint=eastwest;rotatable=0;whiteSpace=wrap;html=1;" vertex="1" parent="TpQrMElq0maH1EQhu35D-1">
          <mxGeometry y="270" width="140" height="30" as="geometry" />
        </mxCell>
        <mxCell id="TpQrMElq0maH1EQhu35D-50" value="Technologies" style="text;strokeColor=none;fillColor=none;align=left;verticalAlign=middle;spacingLeft=4;spacingRight=4;overflow=hidden;points=[[0,0.5],[1,0.5]];portConstraint=eastwest;rotatable=0;whiteSpace=wrap;html=1;" vertex="1" parent="TpQrMElq0maH1EQhu35D-1">
          <mxGeometry y="300" width="140" height="30" as="geometry" />
        </mxCell>
        <mxCell id="TpQrMElq0maH1EQhu35D-56" value="Photo" style="text;strokeColor=none;fillColor=none;align=left;verticalAlign=middle;spacingLeft=4;spacingRight=4;overflow=hidden;points=[[0,0.5],[1,0.5]];portConstraint=eastwest;rotatable=0;whiteSpace=wrap;html=1;" vertex="1" parent="TpQrMElq0maH1EQhu35D-1">
          <mxGeometry y="330" width="140" height="30" as="geometry" />
        </mxCell>
        <mxCell id="TpQrMElq0maH1EQhu35D-8" value="Asset" style="swimlane;fontStyle=0;childLayout=stackLayout;horizontal=1;startSize=30;horizontalStack=0;resizeParent=1;resizeParentMax=0;resizeLast=0;collapsible=1;marginBottom=0;whiteSpace=wrap;html=1;" vertex="1" parent="1">
          <mxGeometry x="470" y="40" width="140" height="420" as="geometry" />
        </mxCell>
        <mxCell id="TpQrMElq0maH1EQhu35D-30" value="Id" style="text;strokeColor=none;fillColor=none;align=left;verticalAlign=middle;spacingLeft=4;spacingRight=4;overflow=hidden;points=[[0,0.5],[1,0.5]];portConstraint=eastwest;rotatable=0;whiteSpace=wrap;html=1;" vertex="1" parent="TpQrMElq0maH1EQhu35D-8">
          <mxGeometry y="30" width="140" height="30" as="geometry" />
        </mxCell>
        <mxCell id="TpQrMElq0maH1EQhu35D-9" value="Nom" style="text;strokeColor=none;fillColor=none;align=left;verticalAlign=middle;spacingLeft=4;spacingRight=4;overflow=hidden;points=[[0,0.5],[1,0.5]];portConstraint=eastwest;rotatable=0;whiteSpace=wrap;html=1;" vertex="1" parent="TpQrMElq0maH1EQhu35D-8">
          <mxGeometry y="60" width="140" height="30" as="geometry" />
        </mxCell>
        <mxCell id="TpQrMElq0maH1EQhu35D-10" value="Description courte" style="text;strokeColor=none;fillColor=none;align=left;verticalAlign=middle;spacingLeft=4;spacingRight=4;overflow=hidden;points=[[0,0.5],[1,0.5]];portConstraint=eastwest;rotatable=0;whiteSpace=wrap;html=1;" vertex="1" parent="TpQrMElq0maH1EQhu35D-8">
          <mxGeometry y="90" width="140" height="30" as="geometry" />
        </mxCell>
        <mxCell id="TpQrMElq0maH1EQhu35D-11" value="Description longue" style="text;strokeColor=none;fillColor=none;align=left;verticalAlign=middle;spacingLeft=4;spacingRight=4;overflow=hidden;points=[[0,0.5],[1,0.5]];portConstraint=eastwest;rotatable=0;whiteSpace=wrap;html=1;" vertex="1" parent="TpQrMElq0maH1EQhu35D-8">
          <mxGeometry y="120" width="140" height="30" as="geometry" />
        </mxCell>
        <mxCell id="TpQrMElq0maH1EQhu35D-12" value="Url de démo" style="text;strokeColor=none;fillColor=none;align=left;verticalAlign=middle;spacingLeft=4;spacingRight=4;overflow=hidden;points=[[0,0.5],[1,0.5]];portConstraint=eastwest;rotatable=0;whiteSpace=wrap;html=1;" vertex="1" parent="TpQrMElq0maH1EQhu35D-8">
          <mxGeometry y="150" width="140" height="30" as="geometry" />
        </mxCell>
        <mxCell id="TpQrMElq0maH1EQhu35D-13" value="Logo" style="text;strokeColor=none;fillColor=none;align=left;verticalAlign=middle;spacingLeft=4;spacingRight=4;overflow=hidden;points=[[0,0.5],[1,0.5]];portConstraint=eastwest;rotatable=0;whiteSpace=wrap;html=1;" vertex="1" parent="TpQrMElq0maH1EQhu35D-8">
          <mxGeometry y="180" width="140" height="30" as="geometry" />
        </mxCell>
        <mxCell id="TpQrMElq0maH1EQhu35D-14" value="Médias" style="text;strokeColor=none;fillColor=none;align=left;verticalAlign=middle;spacingLeft=4;spacingRight=4;overflow=hidden;points=[[0,0.5],[1,0.5]];portConstraint=eastwest;rotatable=0;whiteSpace=wrap;html=1;" vertex="1" parent="TpQrMElq0maH1EQhu35D-8">
          <mxGeometry y="210" width="140" height="30" as="geometry" />
        </mxCell>
        <mxCell id="TpQrMElq0maH1EQhu35D-15" value="Cover" style="text;strokeColor=none;fillColor=none;align=left;verticalAlign=middle;spacingLeft=4;spacingRight=4;overflow=hidden;points=[[0,0.5],[1,0.5]];portConstraint=eastwest;rotatable=0;whiteSpace=wrap;html=1;" vertex="1" parent="TpQrMElq0maH1EQhu35D-8">
          <mxGeometry y="240" width="140" height="30" as="geometry" />
        </mxCell>
        <mxCell id="TpQrMElq0maH1EQhu35D-16" value="Tags" style="text;strokeColor=none;fillColor=none;align=left;verticalAlign=middle;spacingLeft=4;spacingRight=4;overflow=hidden;points=[[0,0.5],[1,0.5]];portConstraint=eastwest;rotatable=0;whiteSpace=wrap;html=1;" vertex="1" parent="TpQrMElq0maH1EQhu35D-8">
          <mxGeometry y="270" width="140" height="30" as="geometry" />
        </mxCell>
        <mxCell id="TpQrMElq0maH1EQhu35D-17" value="Github" style="text;strokeColor=none;fillColor=none;align=left;verticalAlign=middle;spacingLeft=4;spacingRight=4;overflow=hidden;points=[[0,0.5],[1,0.5]];portConstraint=eastwest;rotatable=0;whiteSpace=wrap;html=1;" vertex="1" parent="TpQrMElq0maH1EQhu35D-8">
          <mxGeometry y="300" width="140" height="30" as="geometry" />
        </mxCell>
        <mxCell id="TpQrMElq0maH1EQhu35D-18" value="Catégorie" style="text;strokeColor=none;fillColor=none;align=left;verticalAlign=middle;spacingLeft=4;spacingRight=4;overflow=hidden;points=[[0,0.5],[1,0.5]];portConstraint=eastwest;rotatable=0;whiteSpace=wrap;html=1;" vertex="1" parent="TpQrMElq0maH1EQhu35D-8">
          <mxGeometry y="330" width="140" height="30" as="geometry" />
        </mxCell>
        <mxCell id="TpQrMElq0maH1EQhu35D-27" value="Technologies" style="text;strokeColor=none;fillColor=none;align=left;verticalAlign=middle;spacingLeft=4;spacingRight=4;overflow=hidden;points=[[0,0.5],[1,0.5]];portConstraint=eastwest;rotatable=0;whiteSpace=wrap;html=1;" vertex="1" parent="TpQrMElq0maH1EQhu35D-8">
          <mxGeometry y="360" width="140" height="30" as="geometry" />
        </mxCell>
        <mxCell id="TpQrMElq0maH1EQhu35D-33" value="Date de création" style="text;strokeColor=none;fillColor=none;align=left;verticalAlign=middle;spacingLeft=4;spacingRight=4;overflow=hidden;points=[[0,0.5],[1,0.5]];portConstraint=eastwest;rotatable=0;whiteSpace=wrap;html=1;" vertex="1" parent="TpQrMElq0maH1EQhu35D-8">
          <mxGeometry y="390" width="140" height="30" as="geometry" />
        </mxCell>
        <mxCell id="TpQrMElq0maH1EQhu35D-23" value="Technologie" style="swimlane;fontStyle=0;childLayout=stackLayout;horizontal=1;startSize=30;horizontalStack=0;resizeParent=1;resizeParentMax=0;resizeLast=0;collapsible=1;marginBottom=0;whiteSpace=wrap;html=1;" vertex="1" parent="1">
          <mxGeometry x="200" y="640" width="140" height="180" as="geometry" />
        </mxCell>
        <mxCell id="TpQrMElq0maH1EQhu35D-29" value="Id" style="text;strokeColor=none;fillColor=none;align=left;verticalAlign=middle;spacingLeft=4;spacingRight=4;overflow=hidden;points=[[0,0.5],[1,0.5]];portConstraint=eastwest;rotatable=0;whiteSpace=wrap;html=1;" vertex="1" parent="TpQrMElq0maH1EQhu35D-23">
          <mxGeometry y="30" width="140" height="30" as="geometry" />
        </mxCell>
        <mxCell id="TpQrMElq0maH1EQhu35D-24" value="Nom" style="text;strokeColor=none;fillColor=none;align=left;verticalAlign=middle;spacingLeft=4;spacingRight=4;overflow=hidden;points=[[0,0.5],[1,0.5]];portConstraint=eastwest;rotatable=0;whiteSpace=wrap;html=1;" vertex="1" parent="TpQrMElq0maH1EQhu35D-23">
          <mxGeometry y="60" width="140" height="30" as="geometry" />
        </mxCell>
        <mxCell id="TpQrMElq0maH1EQhu35D-25" value="Logo" style="text;strokeColor=none;fillColor=none;align=left;verticalAlign=middle;spacingLeft=4;spacingRight=4;overflow=hidden;points=[[0,0.5],[1,0.5]];portConstraint=eastwest;rotatable=0;whiteSpace=wrap;html=1;" vertex="1" parent="TpQrMElq0maH1EQhu35D-23">
          <mxGeometry y="90" width="140" height="30" as="geometry" />
        </mxCell>
        <mxCell id="TpQrMElq0maH1EQhu35D-26" value="Description" style="text;strokeColor=none;fillColor=none;align=left;verticalAlign=middle;spacingLeft=4;spacingRight=4;overflow=hidden;points=[[0,0.5],[1,0.5]];portConstraint=eastwest;rotatable=0;whiteSpace=wrap;html=1;" vertex="1" parent="TpQrMElq0maH1EQhu35D-23">
          <mxGeometry y="120" width="140" height="30" as="geometry" />
        </mxCell>
        <mxCell id="TpQrMElq0maH1EQhu35D-28" value="Url" style="text;strokeColor=none;fillColor=none;align=left;verticalAlign=middle;spacingLeft=4;spacingRight=4;overflow=hidden;points=[[0,0.5],[1,0.5]];portConstraint=eastwest;rotatable=0;whiteSpace=wrap;html=1;" vertex="1" parent="TpQrMElq0maH1EQhu35D-23">
          <mxGeometry y="150" width="140" height="30" as="geometry" />
        </mxCell>
        <mxCell id="TpQrMElq0maH1EQhu35D-32" style="edgeStyle=orthogonalEdgeStyle;rounded=0;orthogonalLoop=1;jettySize=auto;html=1;entryX=0;entryY=0.5;entryDx=0;entryDy=0;" edge="1" parent="1" source="TpQrMElq0maH1EQhu35D-27" target="TpQrMElq0maH1EQhu35D-29">
          <mxGeometry relative="1" as="geometry">
            <Array as="points">
              <mxPoint x="180" y="400" />
              <mxPoint x="180" y="685" />
            </Array>
          </mxGeometry>
        </mxCell>
        <mxCell id="TpQrMElq0maH1EQhu35D-34" value="Mes assets" style="swimlane;fontStyle=0;childLayout=stackLayout;horizontal=1;startSize=30;horizontalStack=0;resizeParent=1;resizeParentMax=0;resizeLast=0;collapsible=1;marginBottom=0;whiteSpace=wrap;html=1;" vertex="1" parent="1">
          <mxGeometry x="210" y="10" width="140" height="150" as="geometry" />
        </mxCell>
        <mxCell id="TpQrMElq0maH1EQhu35D-35" value="User" style="text;strokeColor=none;fillColor=none;align=left;verticalAlign=middle;spacingLeft=4;spacingRight=4;overflow=hidden;points=[[0,0.5],[1,0.5]];portConstraint=eastwest;rotatable=0;whiteSpace=wrap;html=1;" vertex="1" parent="TpQrMElq0maH1EQhu35D-34">
          <mxGeometry y="30" width="140" height="30" as="geometry" />
        </mxCell>
        <mxCell id="TpQrMElq0maH1EQhu35D-36" value="Asset" style="text;strokeColor=none;fillColor=none;align=left;verticalAlign=middle;spacingLeft=4;spacingRight=4;overflow=hidden;points=[[0,0.5],[1,0.5]];portConstraint=eastwest;rotatable=0;whiteSpace=wrap;html=1;" vertex="1" parent="TpQrMElq0maH1EQhu35D-34">
          <mxGeometry y="60" width="140" height="30" as="geometry" />
        </mxCell>
        <mxCell id="TpQrMElq0maH1EQhu35D-37" value="Favoris" style="text;strokeColor=none;fillColor=none;align=left;verticalAlign=middle;spacingLeft=4;spacingRight=4;overflow=hidden;points=[[0,0.5],[1,0.5]];portConstraint=eastwest;rotatable=0;whiteSpace=wrap;html=1;" vertex="1" parent="TpQrMElq0maH1EQhu35D-34">
          <mxGeometry y="90" width="140" height="30" as="geometry" />
        </mxCell>
        <mxCell id="TpQrMElq0maH1EQhu35D-38" value="Statut" style="text;strokeColor=none;fillColor=none;align=left;verticalAlign=middle;spacingLeft=4;spacingRight=4;overflow=hidden;points=[[0,0.5],[1,0.5]];portConstraint=eastwest;rotatable=0;whiteSpace=wrap;html=1;" vertex="1" parent="TpQrMElq0maH1EQhu35D-34">
          <mxGeometry y="120" width="140" height="30" as="geometry" />
        </mxCell>
        <mxCell id="TpQrMElq0maH1EQhu35D-39" style="edgeStyle=orthogonalEdgeStyle;rounded=0;orthogonalLoop=1;jettySize=auto;html=1;" edge="1" parent="1" source="TpQrMElq0maH1EQhu35D-31" target="TpQrMElq0maH1EQhu35D-35">
          <mxGeometry relative="1" as="geometry" />
        </mxCell>
        <mxCell id="TpQrMElq0maH1EQhu35D-40" style="edgeStyle=orthogonalEdgeStyle;rounded=0;orthogonalLoop=1;jettySize=auto;html=1;exitX=0;exitY=0.5;exitDx=0;exitDy=0;" edge="1" parent="1" source="TpQrMElq0maH1EQhu35D-30" target="TpQrMElq0maH1EQhu35D-36">
          <mxGeometry relative="1" as="geometry" />
        </mxCell>
        <mxCell id="TpQrMElq0maH1EQhu35D-41" value="Journal" style="swimlane;fontStyle=0;childLayout=stackLayout;horizontal=1;startSize=30;horizontalStack=0;resizeParent=1;resizeParentMax=0;resizeLast=0;collapsible=1;marginBottom=0;whiteSpace=wrap;html=1;" vertex="1" parent="1">
          <mxGeometry x="200" y="210" width="140" height="150" as="geometry" />
        </mxCell>
        <mxCell id="TpQrMElq0maH1EQhu35D-42" value="Asset" style="text;strokeColor=none;fillColor=none;align=left;verticalAlign=middle;spacingLeft=4;spacingRight=4;overflow=hidden;points=[[0,0.5],[1,0.5]];portConstraint=eastwest;rotatable=0;whiteSpace=wrap;html=1;" vertex="1" parent="TpQrMElq0maH1EQhu35D-41">
          <mxGeometry y="30" width="140" height="30" as="geometry" />
        </mxCell>
        <mxCell id="TpQrMElq0maH1EQhu35D-43" value="Version" style="text;strokeColor=none;fillColor=none;align=left;verticalAlign=middle;spacingLeft=4;spacingRight=4;overflow=hidden;points=[[0,0.5],[1,0.5]];portConstraint=eastwest;rotatable=0;whiteSpace=wrap;html=1;" vertex="1" parent="TpQrMElq0maH1EQhu35D-41">
          <mxGeometry y="60" width="140" height="30" as="geometry" />
        </mxCell>
        <mxCell id="TpQrMElq0maH1EQhu35D-44" value="Description" style="text;strokeColor=none;fillColor=none;align=left;verticalAlign=middle;spacingLeft=4;spacingRight=4;overflow=hidden;points=[[0,0.5],[1,0.5]];portConstraint=eastwest;rotatable=0;whiteSpace=wrap;html=1;" vertex="1" parent="TpQrMElq0maH1EQhu35D-41">
          <mxGeometry y="90" width="140" height="30" as="geometry" />
        </mxCell>
        <mxCell id="TpQrMElq0maH1EQhu35D-45" value="Date de création" style="text;strokeColor=none;fillColor=none;align=left;verticalAlign=middle;spacingLeft=4;spacingRight=4;overflow=hidden;points=[[0,0.5],[1,0.5]];portConstraint=eastwest;rotatable=0;whiteSpace=wrap;html=1;" vertex="1" parent="TpQrMElq0maH1EQhu35D-41">
          <mxGeometry y="120" width="140" height="30" as="geometry" />
        </mxCell>
        <mxCell id="TpQrMElq0maH1EQhu35D-51" style="edgeStyle=orthogonalEdgeStyle;rounded=0;orthogonalLoop=1;jettySize=auto;html=1;entryX=0;entryY=0.5;entryDx=0;entryDy=0;" edge="1" parent="1" source="TpQrMElq0maH1EQhu35D-50" target="TpQrMElq0maH1EQhu35D-29">
          <mxGeometry relative="1" as="geometry">
            <Array as="points">
              <mxPoint x="180" y="400" />
              <mxPoint x="180" y="685" />
            </Array>
          </mxGeometry>
        </mxCell>
        <mxCell id="TpQrMElq0maH1EQhu35D-55" style="edgeStyle=orthogonalEdgeStyle;rounded=0;orthogonalLoop=1;jettySize=auto;html=1;" edge="1" parent="1" source="TpQrMElq0maH1EQhu35D-30" target="TpQrMElq0maH1EQhu35D-42">
          <mxGeometry relative="1" as="geometry" />
        </mxCell>
        <mxCell id="TpQrMElq0maH1EQhu35D-57" value="Article" style="swimlane;fontStyle=0;childLayout=stackLayout;horizontal=1;startSize=30;horizontalStack=0;resizeParent=1;resizeParentMax=0;resizeLast=0;collapsible=1;marginBottom=0;whiteSpace=wrap;html=1;" vertex="1" parent="1">
          <mxGeometry x="-370" y="110" width="140" height="270" as="geometry" />
        </mxCell>
        <mxCell id="TpQrMElq0maH1EQhu35D-58" value="Titre" style="text;strokeColor=none;fillColor=none;align=left;verticalAlign=middle;spacingLeft=4;spacingRight=4;overflow=hidden;points=[[0,0.5],[1,0.5]];portConstraint=eastwest;rotatable=0;whiteSpace=wrap;html=1;" vertex="1" parent="TpQrMElq0maH1EQhu35D-57">
          <mxGeometry y="30" width="140" height="30" as="geometry" />
        </mxCell>
        <mxCell id="TpQrMElq0maH1EQhu35D-61" value="Sous-titre" style="text;strokeColor=none;fillColor=none;align=left;verticalAlign=middle;spacingLeft=4;spacingRight=4;overflow=hidden;points=[[0,0.5],[1,0.5]];portConstraint=eastwest;rotatable=0;whiteSpace=wrap;html=1;" vertex="1" parent="TpQrMElq0maH1EQhu35D-57">
          <mxGeometry y="60" width="140" height="30" as="geometry" />
        </mxCell>
        <mxCell id="TpQrMElq0maH1EQhu35D-59" value="Description" style="text;strokeColor=none;fillColor=none;align=left;verticalAlign=middle;spacingLeft=4;spacingRight=4;overflow=hidden;points=[[0,0.5],[1,0.5]];portConstraint=eastwest;rotatable=0;whiteSpace=wrap;html=1;" vertex="1" parent="TpQrMElq0maH1EQhu35D-57">
          <mxGeometry y="90" width="140" height="30" as="geometry" />
        </mxCell>
        <mxCell id="TpQrMElq0maH1EQhu35D-60" value="Type" style="text;strokeColor=none;fillColor=none;align=left;verticalAlign=middle;spacingLeft=4;spacingRight=4;overflow=hidden;points=[[0,0.5],[1,0.5]];portConstraint=eastwest;rotatable=0;whiteSpace=wrap;html=1;" vertex="1" parent="TpQrMElq0maH1EQhu35D-57">
          <mxGeometry y="120" width="140" height="30" as="geometry" />
        </mxCell>
        <mxCell id="TpQrMElq0maH1EQhu35D-62" value="Image" style="text;strokeColor=none;fillColor=none;align=left;verticalAlign=middle;spacingLeft=4;spacingRight=4;overflow=hidden;points=[[0,0.5],[1,0.5]];portConstraint=eastwest;rotatable=0;whiteSpace=wrap;html=1;" vertex="1" parent="TpQrMElq0maH1EQhu35D-57">
          <mxGeometry y="150" width="140" height="30" as="geometry" />
        </mxCell>
        <mxCell id="TpQrMElq0maH1EQhu35D-63" value="Url" style="text;strokeColor=none;fillColor=none;align=left;verticalAlign=middle;spacingLeft=4;spacingRight=4;overflow=hidden;points=[[0,0.5],[1,0.5]];portConstraint=eastwest;rotatable=0;whiteSpace=wrap;html=1;" vertex="1" parent="TpQrMElq0maH1EQhu35D-57">
          <mxGeometry y="180" width="140" height="30" as="geometry" />
        </mxCell>
        <mxCell id="TpQrMElq0maH1EQhu35D-64" value="Date de création" style="text;strokeColor=none;fillColor=none;align=left;verticalAlign=middle;spacingLeft=4;spacingRight=4;overflow=hidden;points=[[0,0.5],[1,0.5]];portConstraint=eastwest;rotatable=0;whiteSpace=wrap;html=1;" vertex="1" parent="TpQrMElq0maH1EQhu35D-57">
          <mxGeometry y="210" width="140" height="30" as="geometry" />
        </mxCell>
        <mxCell id="TpQrMElq0maH1EQhu35D-65" value="Statut" style="text;strokeColor=none;fillColor=none;align=left;verticalAlign=middle;spacingLeft=4;spacingRight=4;overflow=hidden;points=[[0,0.5],[1,0.5]];portConstraint=eastwest;rotatable=0;whiteSpace=wrap;html=1;" vertex="1" parent="TpQrMElq0maH1EQhu35D-57">
          <mxGeometry y="240" width="140" height="30" as="geometry" />
        </mxCell>
      </root>
    </mxGraphModel>
  </diagram>
  <diagram id="Fm1d2zZjf1ES5i8zpX36" name="Page-2">
    <mxGraphModel dx="2261" dy="739" grid="1" gridSize="10" guides="1" tooltips="1" connect="1" arrows="1" fold="1" page="1" pageScale="1" pageWidth="827" pageHeight="1169" math="0" shadow="0">
      <root>
        <mxCell id="0" />
        <mxCell id="1" parent="0" />
        <mxCell id="1Ghl1Ft3cvEibCSnPbBJ-14" style="edgeStyle=orthogonalEdgeStyle;rounded=0;orthogonalLoop=1;jettySize=auto;html=1;entryX=0.5;entryY=0;entryDx=0;entryDy=0;" parent="1" source="1Ghl1Ft3cvEibCSnPbBJ-9" target="1Ghl1Ft3cvEibCSnPbBJ-11" edge="1">
          <mxGeometry relative="1" as="geometry" />
        </mxCell>
        <mxCell id="1Ghl1Ft3cvEibCSnPbBJ-9" value="" style="rounded=1;whiteSpace=wrap;html=1;fillColor=#fff2cc;strokeColor=#d6b656;" parent="1" vertex="1">
          <mxGeometry x="124" y="30" width="460" height="270" as="geometry" />
        </mxCell>
        <mxCell id="1Ghl1Ft3cvEibCSnPbBJ-1" value="Publications" style="rounded=0;whiteSpace=wrap;html=1;" parent="1" vertex="1">
          <mxGeometry x="440" y="160" width="120" height="60" as="geometry" />
        </mxCell>
        <mxCell id="1Ghl1Ft3cvEibCSnPbBJ-6" style="edgeStyle=orthogonalEdgeStyle;rounded=0;orthogonalLoop=1;jettySize=auto;html=1;entryX=0.5;entryY=0;entryDx=0;entryDy=0;" parent="1" source="1Ghl1Ft3cvEibCSnPbBJ-2" target="1Ghl1Ft3cvEibCSnPbBJ-5" edge="1">
          <mxGeometry relative="1" as="geometry" />
        </mxCell>
        <mxCell id="1Ghl1Ft3cvEibCSnPbBJ-2" value="SIDRH&lt;span style=&quot;color: rgba(0, 0, 0, 0); font-family: monospace; font-size: 0px; text-align: start; text-wrap: nowrap;&quot;&gt;%3CmxGraphModel%3E%3Croot%3E%3CmxCell%20id%3D%220%22%2F%3E%3CmxCell%20id%3D%221%22%20parent%3D%220%22%2F%3E%3CmxCell%20id%3D%222%22%20value%3D%22Publications%22%20style%3D%22rounded%3D0%3BwhiteSpace%3Dwrap%3Bhtml%3D1%3B%22%20vertex%3D%221%22%20parent%3D%221%22%3E%3CmxGeometry%20x%3D%2260%22%20y%3D%22110%22%20width%3D%22120%22%20height%3D%2260%22%20as%3D%22geometry%22%2F%3E%3C%2FmxCell%3E%3C%2Froot%3E%3C%2FmxGraphModel%3E&lt;/span&gt;" style="rounded=0;whiteSpace=wrap;html=1;" parent="1" vertex="1">
          <mxGeometry x="150" y="160" width="120" height="60" as="geometry" />
        </mxCell>
        <mxCell id="1Ghl1Ft3cvEibCSnPbBJ-7" style="edgeStyle=orthogonalEdgeStyle;rounded=0;orthogonalLoop=1;jettySize=auto;html=1;entryX=0;entryY=0.5;entryDx=0;entryDy=0;" parent="1" source="1Ghl1Ft3cvEibCSnPbBJ-3" target="1Ghl1Ft3cvEibCSnPbBJ-5" edge="1">
          <mxGeometry relative="1" as="geometry" />
        </mxCell>
        <mxCell id="1Ghl1Ft3cvEibCSnPbBJ-3" value="FINANCEMENTS" style="rounded=0;whiteSpace=wrap;html=1;" parent="1" vertex="1">
          <mxGeometry x="294" y="100" width="120" height="60" as="geometry" />
        </mxCell>
        <mxCell id="1Ghl1Ft3cvEibCSnPbBJ-13" style="edgeStyle=orthogonalEdgeStyle;rounded=0;orthogonalLoop=1;jettySize=auto;html=1;entryX=0;entryY=0.5;entryDx=0;entryDy=0;exitX=0.5;exitY=1;exitDx=0;exitDy=0;" parent="1" source="1Ghl1Ft3cvEibCSnPbBJ-4" target="1Ghl1Ft3cvEibCSnPbBJ-11" edge="1">
          <mxGeometry relative="1" as="geometry" />
        </mxCell>
        <mxCell id="1Ghl1Ft3cvEibCSnPbBJ-8" style="edgeStyle=orthogonalEdgeStyle;rounded=0;orthogonalLoop=1;jettySize=auto;html=1;entryX=0.5;entryY=0;entryDx=0;entryDy=0;" parent="1" source="1Ghl1Ft3cvEibCSnPbBJ-5" target="1Ghl1Ft3cvEibCSnPbBJ-4" edge="1">
          <mxGeometry relative="1" as="geometry" />
        </mxCell>
        <mxCell id="1Ghl1Ft3cvEibCSnPbBJ-5" value="SCANR" style="rounded=0;whiteSpace=wrap;html=1;" parent="1" vertex="1">
          <mxGeometry x="-100" y="280" width="150" height="60" as="geometry" />
        </mxCell>
        <mxCell id="1Ghl1Ft3cvEibCSnPbBJ-10" value="DATAWAREHOUSE" style="text;html=1;align=center;verticalAlign=middle;whiteSpace=wrap;rounded=0;fontStyle=1" parent="1" vertex="1">
          <mxGeometry x="280" y="50" width="140" height="30" as="geometry" />
        </mxCell>
        <mxCell id="1Ghl1Ft3cvEibCSnPbBJ-20" style="edgeStyle=orthogonalEdgeStyle;rounded=0;orthogonalLoop=1;jettySize=auto;html=1;entryX=0.25;entryY=1;entryDx=0;entryDy=0;" parent="1" source="1Ghl1Ft3cvEibCSnPbBJ-12" target="1Ghl1Ft3cvEibCSnPbBJ-11" edge="1">
          <mxGeometry relative="1" as="geometry">
            <Array as="points">
              <mxPoint x="291" y="720" />
            </Array>
          </mxGeometry>
        </mxCell>
        <mxCell id="1Ghl1Ft3cvEibCSnPbBJ-12" value="FRONT&lt;div&gt;(ANGULAR | REACT | VUEJS)&lt;/div&gt;" style="rounded=0;whiteSpace=wrap;html=1;" parent="1" vertex="1">
          <mxGeometry y="700" width="200" height="60" as="geometry" />
        </mxCell>
        <mxCell id="1Ghl1Ft3cvEibCSnPbBJ-17" style="edgeStyle=orthogonalEdgeStyle;rounded=0;orthogonalLoop=1;jettySize=auto;html=1;exitX=0;exitY=0.5;exitDx=0;exitDy=0;" parent="1" source="1Ghl1Ft3cvEibCSnPbBJ-15" edge="1">
          <mxGeometry relative="1" as="geometry">
            <mxPoint x="350" y="570" as="targetPoint" />
          </mxGeometry>
        </mxCell>
        <mxCell id="1Ghl1Ft3cvEibCSnPbBJ-15" value="VISUALISATION&lt;div&gt;- SUPERSET&lt;br&gt;- Redash&lt;/div&gt;&lt;div&gt;- Metabase&lt;/div&gt;" style="rounded=0;whiteSpace=wrap;html=1;align=left;spacingLeft=10;" parent="1" vertex="1">
          <mxGeometry x="464" y="690" width="136" height="70" as="geometry" />
        </mxCell>
        <mxCell id="1Ghl1Ft3cvEibCSnPbBJ-21" value="" style="shape=image;verticalLabelPosition=bottom;labelBackgroundColor=default;verticalAlign=top;aspect=fixed;imageAspect=0;image=data:image/jpeg,/9j/4AAQSkZJRgABAQAAAQABAAD/2wCEAAkGBxAQERUQEBAQEBAXFxAVGBAQFRYWFRAQFhgWGBUVFRUYHSggGBolGxUWITEhJiorLi4uGB8zODYwNyg0LisBCgoKDg0OGxAQGy0mIB8vLy0yLS0tMC0tLS0tLS0tLy0tLS0vLS0tLS0tLS0tLS0tLS0tLS0tLS0tLS0tLS0tLf/AABEIALcBEwMBEQACEQEDEQH/xAAcAAEAAQUBAQAAAAAAAAAAAAAABgIDBAUHAQj/xABJEAACAQMBBAUGCgcHAwUAAAABAgADBBESBQYhMRNBUWFxByJSU4GRFjIzQmJyk6Gx0RQkNHOSs8EjQ2N0grLCFVTxFyWD0vD/xAAaAQEAAwEBAQAAAAAAAAAAAAAAAgMEAQUG/8QANREAAgECAwQJAwUAAgMAAAAAAAECAxEEEiExQVGhBRQVMjNSYXGBE8HRIkKRsfAj4SQ0Q//aAAwDAQACEQMRAD8A7jAEAQBAEAQBAEAQBAEAQBAEA1u1dvWlqM3FxRpfRdhqPgvM+6TjTlLYiEqsI7WRW+8rOzafCmLiv306eke+oV/CWrDS3lLxUdyZqKvllp/Msah+vVVfwUyfVfUg8W9y5ltPLMOuwb2VgfxSOqric62+HM2Fr5YbNvlLe5p94COB7mB+6ceFe5kli1vRJNl79bMuSBTu6asfmVc02z2DWBn2SqVGa3Fsa9N7yRKwIyDkdolRcewBAEAQBAEAQBAEAQBAEAQBAEAQBAEAQBAEAQBAEAQBAI1vVvvZ7P8ANqN0lfGRb0sF+4t1IPH2ZltOjKfsU1K8YabWcl3h8pG0LvKo/wCi0j8ygTqI+lV5n2aZrhRhExzrTlvIgckliSWPNicknvJ5y4pPdMHLnumBcaYB5pgHhSDptdibyXtkQba4dF9WTqpnxRuHuwZGUIy2olGbjsZ0/dbyr0auKd8gt6nLplyaLHvzxT25HfMs8M9sTXTxO6R0inUVgGUhlIBDKcgg8iCOYmVqxqTT1RVB0QBAEAQBAEAQBAEAQBAEAQBAEAQBAEAQBAEA8JxAOT7+eU7i1ts5u0Pdjj4ij2/X93bNlLD21l/Bhq4i+kP5OVsSxLMSzEklmOSxPMknmZqMpUFg4VBYOFWmdOXGIGY9xAzHmmBc8KwduUlZw6UFYBJNzt9bnZrBQTVtifOt2PAdrUz8xvuPX2yupSU1rtLadWUHod42Dtu3vqIr2760PAg8GRutXXqI/wD3CYJwcHZno06imro2MgTEAQBAEAQBAEAQBAEAQBAEAQBAEAQBAEAQDjflR36NZmsbR8URlatVT8q3XTU+gOs9Z4cue2hSy/qe0wV62Z5Vs/s5qqzSZS4qwCsCdItlQE7Yg5HuJ2xByPcTtjmYqpUmdgiKWZiFVVGSzE4AA6yTOPQJ3dkT6w8k906BqtelRYjPR6S5HcxBAB8MzLLFRT0RvjgptauxF95917nZ7ha6go2dNVMlHxzHHiD3H75bTqRmtCirSnSf6jSESdiKkUlYJXLbLOHTa7r7xV9nVxWonKnAqUifNqp2HsPYerwyDCcFNWZOE3B3R9EbC2vRvaCXFBtSMOR5o3WrDqYHhPOnFxdmenCamroz5EmIAgCAIAgCAIAgCAIAgCAIAgCAIAgCAQHyr72G0oi1oti5rA5Yc6NHkW7mPED2nqmnD07vM9xlxNSyyrecPVZtMJ0fcnya/pdFbm6qPSpvxSnTxrZOp2ZgQAeoY5cZmq18rsjTSw+ZZpFO+3k6NlSNzb1Hq0VxrSoBrpgnAYFQAy5IzwyOfhKjXzuzIV8PkWaOwggE1WMDkVASVityPcTtiDkehYscuTLyT26NtAFwCVp1WXPp+aufHSzTNi9Keht6P1q68Dt08w9wi3lNoI+za+vHm9Gyk9Th1Ax45I9suw7f1FYzYtL6TucFInqWPFUikiRsWqRQROFiZbYTh0lfk23rOz7nRUb9VqkK4PKm/Jao8OR7vCVVaedepdRqZJX3H0ADPOPTPYAgCAIAgCAIAgCAIAgCAIAgCAIAgFi9uko03rVDpporOzdiqMn8J1Jt2RyUlFXZ8zbd2tUvbmpc1PjO2QvoIOCIPAYHvnpxioqyPJlJyd2YiiSIn0VuFtWlc2NE0yNVOnTpOg503RQpBHUDjI7jPNqxcZu56lGalBWLm+b6rSrbqUNetTqJTpMyq1VtPEICeJAyYpd5PcjlfuOK2s+fGplSVYFWBIKsMFSOBBB5Geuj5+Ta0ZUqyRW2VhIOFYSdBlbLvaltWSvROmohyM8j1FSOsEEg+MjOKkrMnTqSpyUo7Udg2Rv9b1rerXqU6lLoRS6RQAwzUJVdBHPiOsCeZPDSjJRW89unjYSg5PS235IDv3vq1+BRpI1O3B1HV8eqw5FscAB2ce2a6GH+nq9pgxWM+r+mOwhZE0WMaZQRIssTKSJFouiyhhIlhZYQSO6+STeE3dn0NRs1rfShJ5tSPybH2Ar/AKe+YcRC0rreb8NO8cr3E5mc0iAIAgCAIAgCAIAgCAIAgCAIAgCAc88tO1+is0tlOGrtx/dU8M3vbQPaZpw0byvwMuKloo8TiqibTAy6onTjMqzuqtFtdKpUpPy1UnZDjsypE7lT2lWdrYyqvdVaj9JUqVKlTh/aO7MwxxHnE5klFJWRVObbu2SOndUtogU7llo3oACXZ4JcY4BLjHJuoVPf315XS1jquHD2LVONfSektz4+5p7uxqUXalVRqdRTgq3MfmO8cDLoyUldGWcJQdpLUpVJIiXAkAaIBvtnrp2Zdn06tmn8JLf1lEvFj7M1U9MPN8WiNMkvMpZdZwFsicZNMoIkWXRZQRIMuiy0wnCZJvJntf8ARdo0snFOr/Yt2efjQf4wvvMqrRzQZdRllmmfQs849MQBAEAQBAEAQBAEAQBAEAQBAEAQDg/liv8ApdomnnzaNOmmPpN/aN9zL7pvoK0Pc87ESvN+hDEEvM5dE6iEisSaKJMrUSSKWy+iyREklhtKnXRba+J0qMUrsDNS37FfrqUu7mOruplBxeaHyuP/AGaY1Yzjkq/D4flGJtLZdS2fRUAORqSohylVDydG6xLITU1dFNSnKm7P/pmOEkyq57ogXN3p07KP07we5aJ/rKP/ALfH3NV//G95fYjjrLjOWHWAY7icBbIkWXRZ3bZXk/2dSoCnUt0ruQNVWpkszY4lT80dgGJ5Uq8273PdhhqcY2scc312MtleVbdCWpjSyk8SEcBgCe0ZI9gm2lPNFMxVYZJtGg1FSGU4YEEHsYcQffJkD6j2Rei4t6VccqlOnU/iUH+s8uayyaPVhLNFMy5EmIAgCAIAgCAIAgCAIAgCAIAgCAfNO+Vx0m0Lt/8AHqr7EOgfconpwVoo8mbvJ+5q0kyBdEkiuRWsmjPIuJJFRkoJ04ZCCAbvZW01VP0e4U1rUnOkfHoMf7yix5HtXkfbK5023mjo/wC/csp1klkmrx5r1R7tLZJo6XRhWt3+JXUcG+iw+Y461MlTqZtHo1uIVaThaSd4vY/9sZgFJYUm5vhjZtuvpV7l/wCEBf6yiPjS9kbJO2GguLZHHEtM6MeoIOl6hsmo69IxWjR9dWJVT3IAC1Q9ygyuU0nZasthRk1d6Li/9qGu7ehwt6fTVP8AuLlQQD206HFR4vq8BIuMpd7+F+S1ThDuK74v7Ikuz/KneUqQpvSpV3AwKrkqT2a1HBj4YmeWFi3dM208bO1miD7UvqlzVevWbVUc6mPLjyAA6gAAAO6WqKirIqcnJ3ZgPOnUfQnkvuOk2VbH0VdP4HZR9wE8+urTZ6OHd6aJVKS8QBAEAQBAEAQBAEAQBAEAQBAEA+Xttn9auM+vuP5jT1FsR5EtpjpJEC4skiuRWJNGeRdSSKjJpzoMhIOGQk6RZttk7TahqUqtSi/CpQf4lQdv0WHUw4iRnTU/RrYydOs6d96e1PY/9xJxsTcm2bFep0r03CslGp5pRSAcVCpyx93fMNXFzX6VtW/8Hq4fo6k/1yvZ6pPd7m+vd2LOtSWi1EKiatGglTTLcWK47SBzmaNepGWa+02zwlGcVFx0Wz0OZbw7pVLWqQaiC35rXqsFGPRKjJZx2KDngeHV6NPEKcdmvA8etg5UpbdOL/232NK91Qo/Ip01T11wo0g9tOhxHtct4CTyylt09F+fwV54Q7qu+L+y/P8ABqr65qVWL1Xao/pMcnHYOwdw4SSikrIrlKUneTMMwzsS20gy+JQ0iXostOEjvHkeP/tdP95cfzGmDEd89DDdwmsoNAgCAIAgCAIAgCAIAgCAIAgCAIB8y710ejv7pD1V659jOWH3ET1IO8UeTNfqZr0kiBdWSRVIrWTRRIuJJFJk0zOgyEMAyEM6QZkW7LqXV8XUufq5GfuzD2aHFa6vsO+Du5TwD689gEG8rWn9FpZ+P0ox4aH1f0mzBXzv2PO6St9Ne5yaoZ6R4pj1DALBkWTiUGQZfEttIl6LLzh1H0B5KaOjZVDPzumf2NUcj7sTz8Q/1npYbwyXSkvEAQBAEAQBAEAQBAEAQBAEAQBAOAeVmxNLalVuqqtKqP4dB++mffPQoO8EeZXVpsiaGXFJdE6iEisSaKJIuKZNFLL6NOkS+jQC8rwcsbi32cqIKt2zUqZGVpKP7auPoqfiJ9NuHYDK3UbdobeSLVRSWapouG9/herJxu1v9QK9FcjoNOAj5Z1KDgodjx1Ac2PA8+HKYq2Ele8dT08N0hC2WenA391vds+muo3VJvo021sfBVyZQsPUbtY1yxdFK+ZHNt/9q1Lp6dYYNoVPQlfS4dIH7KgPAjsAxnOZvw0FBNb9/wDuB5WNqSqNS/bu+/yQ92mkxGO5nAWjIstiigyDL4ottIlpZqGCR9O7t2P6PaW9Drp0qSn6wUavvzPMqO8mz1KStBI2UgWCAIAgCAIAgCAIAgCAIAgCAIAgHMPLhsrVRo3ajjTY03P0KnxSfBhj/VNWGltiY8VHZI5CpmwxF5TOkWViSRTJFQMmimSLqNOlZnbPtatdxToo1Rz81eodZJPAAdp4CclJRV2ShCU3aKNwK9C0+TKXV0P73GqhQb/DB+VYekfNHUDzldpT26Lm/wAF14UtmsuO5e3F8jWV7l6jF6jM7txLsclj3ky1JJWRRJuTu9pRrnThQXgGZszaYpaqVVTUtqmOkpjmCOVSmT8WovUevkeErnC+q2otpVMv6Zaxe38r1MfbOzzQYYYVKLjVSrqPNq0+3HUw5FTxBnYTze5ypTyPinsfE1bGdZFIoJkWXRRQTIMuii0xnCw3W4uyv0vaFCljKBhUf93T8458SFH+qQqSyxbLKcc0kj6RnmHqiAIAgCAIAgCAIAgCAIAgCAIAgCAYG3dmJd29W2qfFqIy59E/NYd4OD7JKEsskyE4ZotHzNeWlShVejVGmpTZkYfSB6u7rHcRPTTvqjymrFKmdOFwe/uHXJIrkju+5249taUlatTStckAu9QBgjH5qA8AByzzP3DzqteUnpsPUoYaMFqtTYbf3Qs7xCrUkpv82tSUK6n2fGHcZGnWnB6MlVw1OorNHHdtbQaiallRp/o1FGZHUHNSuykjVWqcNXaFGFGeXXPTpxTtN6v+vY8WtNxvTirJc/c06vLjKVB4B7rgFJeAW2ecBIdzaL3lT/p7LroVNT5zxtnUfLIe3kpHJs475nrtQWff/ZtwqdR/Sex8vUn7eSqx6PSKlwKmPldS8/qYxju++ZOtzuej1Cla2pyfeHZFSyuHtquCykYYcnQ8VYeI6uo5E2RmpxujBOk4Sys1bGdJItMZw6dj8i2wDSoPe1Bh63m089VBTxP+pvuVZjxM9cpuwsP3HSplNYgCAIAgCAIAgCAIAgCAIAgCAIAgCAcq8sm6xYDaNFeKgLXA60HBavs5Hux2TXh6n7WYsTT1zL5OTqZrMZeo1SpDDiQQwHaQcj8IOH03sfaVO6opcUmDI4BGOo9ansIOQR3Ty5RcXZnsRkpK6Mi4rrTVndgiKCzMxwFUcSSZFK+iOtpK7PnHb+0BcXVauowtSo7DPok+bnvxiexTWWKR89XeeblxMENLLlFj3VOnLHuqBY8LRc7YpJnLnVEkvk723Ts71alY6aTo9Jn6k1FSGPdlAD3HMz4iDnCyNuDmqdS73ndWvKQTpTUpiljPSFho09urOMTzLO9j2sytc4D5QNtU72+etS40gEpq3pqmct4Ek47sT0aMHGFmeXWmpzuiMs0sKzcbnbuvtG6WgMikPOquPmUhz4+keQ8c9UhOahG5ZTg5uyPo+3oLTRaaKFRQFVRyVQMAD2TzW23dnqJJKyLk4dEAQBAEAQBAEAQBAEAQBAEAQCA75by3dtctTo1AqBEOCinic54kd09LC4enOF5I8PH42tRquMHpbgTmhUyqkkZIU+3E85rU9qLukXNQ7ROHbopqKrAq2GUggqcEEHgQR2Tqug7NWZwLyhbmts6r0lIFrNz5rDj0LH+7f+h6xw5jj6FKpnXqebVpZH6ESVpaUm32JvDd2ZJtq70geJUYZGPaVYEZ7+cjKEZbUShOUO6zI2zvVfXi6Li4Z04HowFRCRyyqgZ9uYhTjHYjlSpOatJmpBltzO4nuZ25FxGYuRyjMXGUZi53KeZnLklE8JnLk1EoJ6urs6s+E4TSKGacJF7Zuz6t1VWhQQvUc4A6h2lj1KOZM42krskld2R9C7mbtUtm24pKQ9RsNVq+sqd3Yo5Af1M8+rUc2ejSpqC9Tf6h2iVFt0NQ7RAuiA777w3Vvc6KNbQnRo2AqHziWyckHsE9LCUKc4Xkt54nSOLrUquWErK3p6k6tWJRSeJKqSe8gTzpKzZ7UHeKZdnCQgCAIAgCAIAgCAIAgCAcr8oZ/XW/d0v6z2MF4XyfNdKf+w/ZfcsrubfEAiiuDg/KJy98l1ulxIro3EPXLzRV8C7/ANSv2ifnOdcpceQ7NxHl5ofAu/8AUr9on5x1ylx5Ds3EeXmh8C7/ANSv2ifnHXKPHkOzcR5eaHwMv/Ur9on5x1ujx5Ds3EeXmh8DL/1K/aJ+cdbo8eQ7NxHl5ofAu/8AUr9on5x1yjx5Ds3EeXmh8C7/ANSv2ifnHXKXHkOzcR5eaHwLv/Ur9on5x1yjx5Ds3EeXmh8C7/1K/aJ+cdco8eQ7NxHl5ofAu/8AUr9on5x1yjx5Ds3EcOaHwLv/AFK/aJ+cdco8eQ7NxHl5ofAu/wDUr9on5x1ylx5Ds3EeXmh8C7/1K/aJ+cdco8eQ7NxHl5ofAu/9Sv2ifnHXKPHkOzcR5eaHwMv/AFI+0T8463R48h2biPLzQ+Bl/wCpH2ifnHW6PHkOzcR5eaHwLv8A1K/aJ+cdcpceQ7NxHl5ofAu/9Sv2ifnHXKXHkOzcR5eaHwLv/Ur9on5x1ylx5Ds3EeXmjUbW2dVtmNOsoV9IbAIPmnOOI8DL6dSM1eJlr0Z0nlmtbHabL5NPqp+Angy7zPr4d1F6RJCAIAgCAIAgCAIAgCAIBGN4NzkvKxrNWdCVVdKqCOHj4zXRxbpRy2POxXR0a887k1uJLSTSoXsAHumVu7PQSsrFU4dEAQBAEAQBAEAQBAEAQBAEAje/e8r7OoJWSktUtUFPSzFQAVds5APo/fLKUM7sV1JuKuiDf+r1x/2VH7Vv/pL+rriU/XfArpeV6rnz7KmV+jWYH2ZSOrLid+u+BOt1d7rXaIPRFkqqMtRqYDqO0Y4MvePbiUTpuG0uhUUthIJWTI5t/dGleVelerUQ6QmF04wM8eI75qo4qVKOVIwYno+FeedtrSxIKKaVC88ADPgMTM3d3NyVlYrnDogCAIAgCAIAgCAIAgCAIAgFNSoqgsxCqOJLHAA7STOpX0RxtJXZpa29tkpx0pbvRWI9+MGXrC1XuMrx1Bb+Rk2O37WsdNOsuo8lbKk+AbGfZIToVI6tE6eKpTdoyNnKjQYe0NqULcZrVFTPIHix8FHEycKcp91FVStCn3nY1yb3WROOlI7yj4/CWvC1eBQsdQe/kzc29dKih6bK6nkykEH2iUOLi7M1RkpK8XdGNf7Xt6HCrVRD6PNsfVHGThSnPuohUr06feZrhvhZZx0jePRvj8JZ1WrwKOv0OPJm2sr2lWXXSdXXtU8j2EdR7jKZQlF2kjTCpGavF3Pby8p0V11XVFyBqblk8hEYuTskJ1IwV5OxYtdsW1UkU61NiAWODyUcye7jJSpTjtRCFenN2jJGJU3pslOnpwe9VZh/EBiTWGqvcVvG0E7ZjZ2t1Tqrrpurr6SnIz2eMqlFxdmaITjNXi7ogvlp/YqX+YT+XVluH7zKq/dRAvJ5sShfXZo3AYoKTvhWKnUGQDiPrGX1ZOMboqpxUpWZMt6fJpa07apVtTVSrTVn0u+pagUZKnPEHAODmVQru9mWzoq10c33b2g9td0KyEgrUTOPnIxCup8VJmiavFozxdmmfSc843iAIAgCAIAgCAIAgCAIAgCAIAgCAQbyh3b66dHJFPTrI9JskDPhj756GCirOW88jpKbuobtpq93Ngrdhia4psDjQACxGM6uJHDq9ktr13T3FGGwyrXvK3obSnuO4rKGqK9DOWIBVsD5unjz5Zz2yp4xZXZal66Oamru8ST7f2kLWg1QAFuCovUXPL2Dn7Jko0/qTsehiKv0qbl/BzKlTrXVbAzUrOeZPPvJ6gPunrNxpx4JHgJTqz4tm7uNyrlU1K1N2AzoUkE+BIwT7pnWMg3ZmuXR9VK6afob7cvYtS3Q1KhZWcD+y6lHUWHpfgJmxVZTdlu3mzA4eVNZpb93+3mu2huZUe4co6rRY6tbkswJ5rjmcdpPIiWwxcVBJrUoqdHylUbT0ZavNySqE07hXcAnQV06sdQOo4MlHGXeqIz6OaV4yuzT7sbQahcIQfNdlRh1FWOAfYTn/wAy+vTU4P0MuFqunVTW/QmG/wD+yj94n/KYcH4nwep0h4PyiA2dCpVcUqQJZ+GkHGRz493DPsnpSkoq73HjQjKbyx3m02puvcW9PpX6NlGNWgklc8MnIHDMpp4mE5ZUaKuDqU45na3oV7l3zUrpUB8yplWHVnBKnxyPvM5ioKVO/A7gajjVS3My/LT+xUv8wn8urMOH7zPXr91HOdzN4Rs64NwaRq5pvT0htPxipznB9H75oqQzqxTCWV3JHvJ5T6lzQe3o2/QdIpVqjVNTBDwYKAowSMjOZXCgk7tk5VrqyRGtytiveXlKmoOhWSpUbqSmpB4+JGkePdLKkssblcI5pWPoiYDcIAgCAIAgCAIAgCAIAgCAIAgCAIBqN4dhJdoAToqLnS+M4zzBHWOAl1Gs6b9DNicMqy4NEHvd17yjx6PpAPnUjqP8PxvunoRxNOW/+TyZ4OtDW1/b/XGyt5bm3YanarTHOnUOTjr0seKn7oqYeE1poxRxlSm9XdcGSHf6prtqLrxQupz3FGKzNg1abTNvSDzUotbL/Y1Xk/dRcsDjUabBfepIHsH3S7GJ5Pkz9HNfVd+B0OeYe0U1HCgsTgAEk9gHEwlfQ43ZXOYbW25cXdTSC4QkBKKHGcnC6sfGY989enRhTV+Z4FbE1K0rLZuRmruTc6dRaipxnGWJ94WV9che2paujqlrto0Fl8pT+vT/ANwmmfdZip95e6J9v9+yj94n/Kebg/E+D2ukPB+UR7cEfrf/AMb/AIrNWM8P5MPR/jfD+xMt5/2Sv+7aYKHiR9z1MX4MvY55u3+10frj+s9Ov4cjxcL40fc2/lp/YqX+YT+XVnnYfvM9uv3Uc/3C2DSv7o0KzVFQU3fNMgHUGQDmDw84zRVm4xuimnFSdmVb+7r/APTq6qhdqDrqR3wTqHB1JAAyMg+Dd05SqZ0dqQysnHkb2pSahUtQiJXQ6yVABrU25Mx6yp83w09spxEXe5bQkrWOjTOXiAIAgCAIAgCAIAgCAIAgCAIAgCAQrffalzTqIqB6VNcMKo5VH7MjqHYefum/C04NNvV8DysfWqRkkrpLfxNfS31uwMEUXPpFTn24IEseDpviUrpCqluNNSpVrqsdK66rsWOBgAk8SfREvbjTjrsRlSnWnpq2dKvNjrUtRak8kRVfsZANLe8Tyo1XGpnPdnh1Kj9P0/o5pdW1a2qaXDU6inII4cvnK3WJ60ZRqR01R4MoTpSs9Gv9oZtxvPeOmhq2BjBKhVYj6wH4StYamnexdLGVpRs2SPc6pXrW9SjUU9DpZUqt9IEaR6QHb1cplxKhGaktvA3YJ1J03CWzcyGslS2qgMNFWmwOD6SnIPeOHtm68Zx02M8u0qU9dqN/cb23VwvQ06aq7jTlMliDz0j5vjxxMywsIPM3sNksdVqLJFasjtkR0lPiPj0/9wmqfdZhptZl7r+yf7/n9VH7xP8AlPNwfifB7XSHg/KI9uAf1o/u3/FJqxnh/Jh6Of8AzfD+xMt5/wBjr/u3mCh4kfc9TF+DL2Od7tEfpdHj88f1nqV/DkeJhX/zR9zb+WogWVLPD9YT+XVnm4fvM9yv3URTyOMDtBsEfIVf99KW4juFdDvHSd/tgfp1m9NRmsn9pSP+Ivzf9QyvtHZM9KeWRfUjmicN3f201lc07lDxQ+cmca6Z4Oh8R7iB2TbKOZWMkZ5Xc+jrG7StTStSYNTdVdWHWrDIM89qzszcncvzh0QBAEAQBAEAQBAEAQBAEAQBAEApdAwwQCOw8QYWhxq+0wH2DaE5NtRz9RRLVWqeZlLw1F/tX8GZb21OmNNNEQdiKFH3SuUnLVstjCMVaKsXZwkWri3SoNNRFdexwCPcZ1Sa1TIyhGStJXMSnsO0U5FtRB7dC8JY61R/uZUsNRTuor+DPAlReWLqxpVeFWlTqdmtQceGZKM5R2MhOnCfeSYtbGjS+SpU6eeehQM+OIlOUtrEKcId1JFQtKfq0/hEZnxO5I8C5UpqwwwDDsIzOJtbDrSe0pp0EU5VFU9oAEOTe04opbEVsoIwQCOw8jOEmrltbamDkIgPaFHCdzPiRyRW49rUEcYdVcc8MARnt4zhIpo2lJDlKdNTyyqgHHiBO3ZyxenDpjHZ9A8TRpE/UXn7p27OWRfp01UaVAVRyCjAHgBOHSqAIAgCAIAgCAIB/9k=;" parent="1" vertex="1">
          <mxGeometry x="-90" y="298.36" width="35" height="23.29" as="geometry" />
        </mxCell>
        <mxCell id="1Ghl1Ft3cvEibCSnPbBJ-26" value="" style="group" parent="1" vertex="1" connectable="0">
          <mxGeometry x="-122.5" y="400" width="195" height="60" as="geometry" />
        </mxCell>
        <mxCell id="1Ghl1Ft3cvEibCSnPbBJ-4" value="MIDDLEWARE SCANR" style="rounded=0;whiteSpace=wrap;html=1;" parent="1Ghl1Ft3cvEibCSnPbBJ-26" vertex="1">
          <mxGeometry width="195" height="60" as="geometry" />
        </mxCell>
        <mxCell id="1Ghl1Ft3cvEibCSnPbBJ-22" value="" style="shape=image;verticalLabelPosition=bottom;labelBackgroundColor=default;verticalAlign=top;aspect=fixed;imageAspect=0;image=data:image/jpeg,/9j/4AAQSkZJRgABAQAAAQABAAD/2wCEAAkGBxANDw0ODg8SDw4NEBAODg8OEBkQDQ0NFRYWGBURFRMYHSggGBomHhYVITEhJSkrLi8uFx8zODMsNygtLisBCgoKDg0OGxAQGjcdICMrLSsrLysuLS0rKy0rLi0rKy0tKystLTAtLS0tLS4rLSsrLS0tLS0rLy0rLS0tLS0tLf/AABEIAOsA1gMBEQACEQEDEQH/xAAbAAADAAMBAQAAAAAAAAAAAAAAAQIEBQcDBv/EAEkQAAIBAwADCwYKCAUFAAAAAAABAgMEEQUhMQYSEzJBUVJhcYGRBxRyk6HRFRYiM0JTdLGz0hckNVSCksHhI0Nic/E0Y6Kjsv/EABoBAQEAAwEBAAAAAAAAAAAAAAABAgQFAwb/xAA3EQEAAQICBwUIAgEEAwAAAAAAAQIDBBESFCExUWGRBRMyQXEVIjNSgaGx0ULB4TRDcvAjU/H/2gAMAwEAAhEDEQA/AO4gAAAAAAAAedxXhSjKdSShCOuUpPEUu1liJmcoSZiIzl8ppLd7Rg3G3pyrPpSfB0+7Ky/BG3Rg6p8U5NSvGUx4YzfPXe7e9qZ3koUlycHBN47Z5NinCW437WvVi7k7tjVV9PXlTjXVb+Go4Lwjg9Ys243UvKb1yd9TCqXlWXGq1JelUk/vZlo0x5MdKqfN4Sk3tee0qEqjWxtdjwDN6w0jXjxa9WPo1ZR+5mOhTPky06uP3ZdDdPfU+Ld1f43wn/2mYTYtz5M4vXI/k3Fh5Q7qm0q0KdePLq4Ko+9av/E8qsJRO7Y9qcXXG/a+30Duotr/AOTTk4VcZdGp8mp1tckl2d+DTuWKre/c27d6mvdvbs8XsAAAAAAAAAAAAAAAAAACZzUU5SeIxTbb2JLaxEZkzk5Luk07O+qt5aowb4GnyJdJrpP2bDr2bMW45uRevTcnl5NO2ezxelS2qRjv5U5xh0pQaj4tYMYqidmbKaZjbkx2zJilsCWyKlsCWwEwqWAQm4tSi3GUWnGUXiUZLY01sZJHVNwm6p3sXb12vOaccqWzh6a+ljpLlXfz45uIsaE6UbnSw97T92re+vNZsgAAAAAAAAAAAAAAAADR7tLh07C4a2zUafdOST9jZ74aM7kPDE1ZW5cnZ1nJffeT/QcODV5UipTlKSo75ZVOMXhyS6TaevmXWc/FXZz0I+roYS1GWnP0fatZ1PWnqaexo0m65ju+0JC0q06tGKjSr77MFqjCosZwuRNPZ1M6eFuzXGU74czFWoonON0vk2zZayWwJbAlhUsBMCWyD30bfyta1K4hxqM1PC+kvpR7GsrvMa6YqpmmWVNWjMVR5O+UainGM4vMZpSi+eLWUzjTGTsxOawAAAAAAAAAAAAAAAAPmfKE/wBRf+7T+82cJ8RrYv4bmDZ1HLdM8nukIVLRUMrhLdyUo8rhKTkpdmtruOZi6JivS4unhK4mjR4PqTVbTnnlO0jGUqFtFpypZqVcfRbWIx7cZfhzm/g6JiJqaGMriZil8K2brSS2BLCkwJYEtkEtgSwru+5eTdhYN7Xa0H/64nIu+Or1l1rXw6fSGzPN6AAAAAAAAAAAAAAAAPmfKH/0L/3af9TZwnxGti/huXNnUct6Wt1UoTVSlOVOcdkovD7OtdRjVTFUZSypqmmc4beruzv5R3vD4ysOUacVN9+NXceMYa3E55PacTcmMs2gnNyblJtyk2228tt7W3ys93g82wJbCkwJbAlsgTYEthUtgd23Kfs/R/2W3/Dici98Sr1l1rPw6fSG1PN6AAAAAAAAAAAAAAAAPnN3tvOrZuNOEqkuEpve04uUsa9eEbGFmIuZy18VEzbyhzd6Iuv3Wv6ifuOl3lHGOrm93Xwnol6Huv3Wv6ifuJ3lHGOp3dfCeiXoe6/dbj1E/cO8o+aOq93XwnoT0Nd/utx6ifuHeUcY6nd18J6Jehrv90uPUT9w7yjjHU7uvhPRE9EXSTbta6STbboTSSW1t4HeUcY6nd18J6MDJmxJsglsCWwqWwJbA7xuU/Z+j/stv+HE5F74lXrLrWfh0+kNqeb0AAAAAAAAAABM5qKcpNJLW23hJdbG8aa63WWNJ4dwpP8A7UXUX80U17T3pw1yfJ4VYm3HmxfjzZdKp6tmWqXGOt2y+PVl0qnq2NUuGt2y+Pdj0qnq2NUuGt2x8e7HpVPVsapcNbtl8fLHpVPVMapcNbtj4+2PSqeqY1S4a1bL4/WPSqeqY1W4a1bL4/2HSqeqY1W4a1bY+kN3djUo1oRlU306c4RzSaW+cWkWnC3ImJSrE25iYcsOi5yWwJbCpbAlsCWwO87lXjR1g+a0t/w4nHvzFNdUzxl1rG23T6QzvPYdfgcz2nY59Gz3NQ89h1+A9p2OfQ7moK8hzvwLHaVifP7Hc1PaFRS2NPsNu3douRnRObzmmY3qPRAAAAGn3Rafp2EE38urNf4dJPDf+qT5IntZszcnk8b16Lcc3M9LaYr3kt9Wm2s5jTWqlDsj/V5fWdO3apoj3Ycu5dquT70tez0YJbAlsCWwJbIqWwJbATCpYEtkEtgJsKlsCWwJbAkg7zuY/Ztj9jofhxOLi/5/V18P4KfSEHxrqAAAIzaeU8NForqoq0qZykmInZLZWlxwi18ZbevrPo8FjIv05T4o3/tp3behPJkG88gBjaRvI21GpWqcWnFyfO3yRXW3hd5lRTNVUUwxrqimmapce0lfTuas61V5nN56orkiupHZooiiNGHGrrmurSlisyYpbAlsCWwJbIpNgS2BLCpYCYEtkEthUtgS2BLYEkAB3ncx+zbH7HQ/DicXF/z+rr4fwU+kIPjXULJAiKWSKqjV3klJcm3rXKeti9Nm5FceX482NdOlGTdJ51rlPr4mJjOHO3GUfFeUq9cYULdP5yTqz9GOqKfe2/4TdwdG2amlja9kUvgGdBz0tgJsCWwJbIqWwJbAlhUsBNgS2QS2FS2BLYEtgSyAAAO9bm473R1kntVpQz6uJxMXOyufV2LEe7THo8j411CyQLJFTkgWTFW30fU31Nf6fk+4+o7Mu6eHiOGz9fZo36cq2SdB4uW7vbnhL6pHkowp0l4b9+2fsOrhacrcc3KxVWdz0fONmw10tgS2BLZFS2BLYEthSYEtgS2QS2BLYVLYCbAlsgQABk6NsZXVajbw41acYLqT2y7EsvuJVVoxMyypp0pimPN32ulSpKEdSUVTiuZYxjwPmu0LuhYqnjs6u5ZpzqhrMnyzfLJAskUskCIrP0TPXOPUn7/6Ha7Gue9XR6T+/wCmriY2RLZHfaji+nK3CXV1PpV6uPRUml7EjtWoyoiOTi3ZzrmebAbM2CWwJbIqWwJbATYVLAlgJsglsCWwqWwJbAlsBEAAJcnK9SS2t8wHWPJ3uTlaLzu5ji4qR3tOm9tCm9rfNN+xauVnPxF7S92nc6GHs6PvVb30l9X30sLZH2s+Q7RxXe3NGndH3l17NGjGcsXJznsWSKkilkgRirK0bLFVdaa9mf6HQ7Kr0cTEcYmP7/p44iM6G5Pq3PcLrT30pS6Um/F5O5GyHDmc5ebZUS2RUtgS2BLYVLYCYGdo3Ql1d67ehOpHp43tP+eWF7TzruUUeKWdFuuvww3lPyd30lluhHqlUk37Is8Zxdvm9owlzkp+Te9+st/WT/ITW6Oa6pXyL9G199Zb+sn+Qa3RzNUr5J/RrffWW/rJ/kGt0czVK+RPyaX31lt6yf5BrdHM1SvkX6M776y29ZP8g1ujmarXyH6M776y29ZP8g1ujmarXyZFr5L7lv8AxbijBc9NSqPwaiYzi6fKGUYSrzl9huf3G2mj2qiTq1o/51bDcPRWyPbt6zVu4mao2zlDZt4emmdm2Wzu7zOYw2csufsPnMb2jpR3drd5z+v26NqzltqYOTjNkskCIpZJmpECIr2s5YqU/Sx4mzgassTRPN53Y9yW+Ps3McJqx3spR6La8GdyJ2OHMZS82wJbAlsCWwJYUJNtJJttpJJZbb2JLlYHSNym4WFNRr30VOo8ONB66dP0+lLq2dpz72JmdlHVv2cNEba+j7KdxCn8lcmpRjsS5jjX8fatTl4p5OhRaqnk8HfvkivE0J7Wr8qfu9e4jiPPpdFE9q3Plhe4jiPPpdFD2rc+WDuI4jz6XRQ9q3Plg7iOI8/l0UPa1z5YO4jiXn8uiie1rnywavHEfCEuih7XufLC6vHFMr+XIkjCrta9O6IhYw9LGq1pT4zb+7wNC7iLl3x1Z/jo9aaKad0PPJ4MyyRSIERSMVLJAskV6WnzlP0l95sYPbiKPWGF3wT6PoT7ZynEtOUuDurqGze16uPR3za9mDs25zoieTjXIyrmObAbM2CWwJbATCpYH3/k00ApZv6sc4bhbJ7MrVKr98V2S6jRxV3+EfVu4W1/Ofo+3vLj6Ef4n/Q+Y7QxsxPdUT6z/X7da1b/AJSwjjNkAAAAAIilkgWSKnJAsmKkRSyRSIERSyQLJFLJFZGjlmrDqy/BM3ezKdLFUfWftLyvzlblvz7Jy3JvKBbcHf1XyVoU6q8N6/bBnUwtWduOTl4qnK5PN822bDXS2BLCpYBGLk1GOuUmklzt6kiDu9nbRtLenShxaNOMF1tLGe96zgYq/oUVXP8AvJ27VG6mGCfJTOe2XRBAAACyAjFSyRSyQLJFLJAiKRFIgRFLJipZIpZIJyRWx0LDMpS6Kx3v/g7fYdvO7VXwjLr/APGpi6vdiG4Ppmg+D8qVlmNtcJcVyoz/AIvlR+6XibuDq30tLGU7Iqc8bN9oJbCpYCbAytDLN1Zp7Hc0E+zhImFfhn0llR4o9Ydyv+J3o+W7Tn/wT6w71nxNafOtwAACyQIilkilkgWSKnJFIgRioIpZIJyRSyRSyQLJFIit9oqlvKSfLP5T79nswfX9k2O6w0TO+rb13fZzMTXpV+mxmHTa7A05o1XltWt5auEj8mT+jUWuMu5pGduvQqiphco06ZpcRuKUqc505xcZwk4Ti9sZJ4aOxExMZw48xMTlLyZRLAlsgzNCP9bsvtNv+JExueCfSWdHij1j8u43/E70fLdp/A+sO9Z8TXHzrbACIpZIJyYqWSKWSBEUskzUiBEUskUskCyYqWSKRAiK9bShwk4x5HrfVHlNnCYecRei319PNhdr0KZl9KkfcxGUZQ44KAD43dxuSd3m5tkvOEsVIbFXitmH0ls612G3h7+h7tW5q4ixp+9Tv/LmFWEoSlCcXGcXiUZLeyi+Zp7DoROe2HOmMtkvNsCWwMvQb/W7L7Vb/iRMbngn0lnR4o9Y/Lud/wATvR8t2n8D6w71nxNbk+cbZEUskUskCyRSyRSIERSMVLJAskUskVOSBZIpEUiCoRcmkllvYltMqKKq6oppjOZSZiIzlvtHWfBR18eW3q6j6/s3A6tRnV4p3/pzL97vJ2bmWdJ4AAAANfpTQlteL9YoxqNLCnxaiXMprD9pnRcqo8MsK7dNfih8/V8nNlJ5Uq8FzRqJpfzRbPeMXW8ZwlCP0bWX1tx/PD8g1uvhCapRxl62vk8s6VSlVjUruVKpCrFOcN65QkpLPyNmok4quYyWMLRE5vpdIcTvRxe1PgfWG/Y8TWZPnG4WSKnJAskzUjFTgsuK52kZW6YqrppnzmISZyiZbP4Nhzy8V7j6H2PY4z1j9NPWax8GQ55eK9w9jWOM9Y/RrNZfBkOeXivcT2NY4z1j9LrVY+C4c8vFe4exbHGesfo1qvhA+C6fPLxXuHsWxxnrH6Nar4QXwVT55eK9xPYljjPWP0a1XwgfBNPnl4r3D2Jh+M9Y/S63Xwgvgmnzz8V7iew8PxnrH6Nbr4QPginzz8V7h7Dw/Gesfo1uvhBrRNPnk+1/2LHYmGjfMz9f8E4utlULeFPiRS6+V950LGFs2Iyt05fnq8K7lVfil6mwwAAAAAAAAAABi6R4nejndqfA+sPax42ryfNN0skUskCIpZJmpJ41rahFUxOcGT186qdOXibGvYj55Yd1RwLzup05eJNexHzyvdUcC87qdOXiTXsR88r3NHAvPKnTl4k1/E/PJ3NHAvPKnTl4k1/E/PK9zRwLzyp05eJNfxP/ALJO5o4N9aSbp029bcYtvneD6/CVTVYoqqnOZpj8OZdiIrmI4vU2GAAAAAAAAAAAAAAAADF0j833o5vav+n+sPax42qyfNN5OSKRAjFQRSyQTkilkiiKbeEst7EtbYppmqdGmM5JyjbL2lY1Us7x92G/DabdXZ2KiM5on7fiJzecX7eeWbGZoy9iIPpbL5ql6EfuPucD/prf/GPw5F34lXrL2Np5gAAAAAAAAAAAAAAAMXSXzfejm9q/6f6w98P42oPmG8WSZqRAiKWSKWSBZMVLJFbjQ9FKG/8ApTzr5op4x7D6jsbD002e986s+kTk5+KrmatHg2B2Wq1GmqCTjNat9ql1vkZ8125h6aZpu0+eyf6b+ErmYmmWrOC3H0tn83T9CP3H3OCjLDW/+MfhyLvjq9ZextPMAAAAAAAAAAAAAAAB5XNPfwlHla1dvIa+Ks99Zqo47vXyZ26tGqJaJnxs7NkumRipZIFkilkipyQLJFIitvoe5W94NvDTbj1p6z6TsXF0zR3FU5TG7nE7Whirc56cNmd5ptLpi5U2oReVHLb5N9zHy3bOLpu1RbonOKd/r/h0cLbmmNKfNg0abnKMVtk8f3OTZtVXa4t075nJsVVRTEzL6eMcJJbEsI+9ppimIpjyceZznMzJAAAAAAAAAAAAAAAAABr7+y32Zw2/Sjz9aOJ2j2dNczdtRt844845/n137Vi9l7tTVs+dnY3U5IpZIpZIpZMQiKQAB6OvNrDnJrmcng9pxN6qNGa5mPWWMW6YnPJEIuTSSy3sS2nnRRVXVFNMZzKzMRGct5o6x4Jb6Wub8IrmPrOzeztXjTr8U/bl+3Ov39PZG5nHVawAAAAAAAAAAAAAAAAAAADHuLSFTasPpLU/7mnicBZxG2qMp4xv/wA/V6271VG5rq2i5ritSXgzh3uxr1O23OlHSf1923TiqZ37GHUozjxotdq1eJzLuHu2/HTMfT+2xTXTVul5ZPDNmCBAAHtTtak+LBvrxheLNm1g793wUT+PvLCq7RTvlm0NESfHkkuaOt+J1LHYdc7btWXKNs/96tavFxHhjNsre2hTXyVjne1vvO7h8JZw8ZW4y5+fVqV3aq98vY2XmAAAAAAAAAAAAAAAAAAAAAAAAAPOdCEtsIvtimeNeGs1+KiJ9YhnFyqN0vN2NLoI8J7Ows/7cMu/ucQrKkv8uPesljs/Cx/tx0O+ucXrClGPFil2LBsUWbdHhpiPSGE1VTvlZ6MQAAAAAAAAAAAAAAAAAAAAAAAAAAAAAAAAAAAAAAAAAAAAAAAAAAAAAAAAAAABkBb4Cd+AuEAOEAXCAHCAPhADhAHvwK3wDyAAAAAAAAAAAAAAAAAAACYEMCGBLATAQCAMgMBpgNMC0BSAtAMAAAAAAAAD/9k=;" parent="1Ghl1Ft3cvEibCSnPbBJ-26" vertex="1">
          <mxGeometry x="10" y="19.019999999999982" width="20" height="21.97" as="geometry" />
        </mxCell>
        <mxCell id="1Ghl1Ft3cvEibCSnPbBJ-11" value="BACKEND (PYTHON + ES)" style="rounded=0;whiteSpace=wrap;html=1;" parent="1" vertex="1">
          <mxGeometry x="228.99560975609756" y="510" width="250.00000000000003" height="60" as="geometry" />
        </mxCell>
      </root>
    </mxGraphModel>
  </diagram>
</mxfile>
